Coordinates
version=1
nRows=6
nColumns=63
inDegrees=yes

Units are S.I. units (second, meters, Newtons, ...)
If the header above contains a line with 'inDegrees', this indicates whether rotational values are in degrees (yes) or radians (no).

endheader
time	pelvis_tilt	pelvis_list	pelvis_rotation	pelvis_tx	pelvis_ty	pelvis_tz	hip_flexion_r	hip_adduction_r	hip_rotation_r	knee_angle_r	knee_angle_r_beta	ankle_angle_r	subtalar_angle_r	mtp_angle_r	hip_flexion_l	hip_adduction_l	hip_rotation_l	knee_angle_l	knee_angle_l_beta	ankle_angle_l	subtalar_angle_l	mtp_angle_l	L5_S1_Flex_Ext	L5_S1_Lat_Bending	L5_S1_axial_rotation	L4_L5_Flex_Ext	L4_L5_Lat_Bending	L4_L5_axial_rotation	L3_L4_Flex_Ext	L3_L4_Lat_Bending	L3_L4_axial_rotation	L2_L3_Flex_Ext	L2_L3_Lat_Bending	L2_L3_axial_rotation	L1_L2_Flex_Ext	L1_L2_Lat_Bending	L1_L2_axial_rotation	L1_T12_Flex_Ext	L1_T12_Lat_Bending	L1_T12_axial_rotation	Abs_r3	Abs_r2	Abs_r1	Abs_t1	Abs_t2	neck_flexion	neck_bending	neck_rotation	arm_flex_r	arm_add_r	arm_rot_r	elbow_flex_r	pro_sup_r	wrist_flex_r	wrist_dev_r	arm_flex_l	arm_add_l	arm_rot_l	elbow_flex_l	pro_sup_l	wrist_flex_l	wrist_dev_l
      2.21621622	     -4.14954359	      6.41600587	     82.18061022	      0.25573010	      0.81021982	      0.72733195	      3.61502508	     -2.49415536	     15.29952941	     11.78434601	      0.20567564	     17.90994120	     -9.18682994	      0.00000000	     -2.52077243	      1.94888234	    -13.30411347	      2.00334879	      0.03496503	     17.33032120	      4.88550695	      0.00000000	     -0.23859037	     -0.62104925	      2.75070900	     -0.44308618	     -0.82599550	      2.92262832	     -0.39198012	     -1.51001915	      2.92262832	     -0.27268494	     -1.51001915	      2.40687038	     -0.22155502	     -1.26644363	      2.23495107	     -0.13633054	     -0.96200529	      2.06303175	     -1.70422718	     -7.02543333	     15.29861826	      0.00000000	      0.00000000	      8.00976780	      4.25968239	     -4.84257148	     59.25008391	     -0.86822145	    -10.31406469	    139.60577758	     88.95113725	     -4.51576649	      7.18035056	     60.68919293	     -9.89304608	     -0.69796007	    142.80482202	     87.72530282	     -6.21528287	      8.83525602
      2.24324324	     -3.90028820	      6.44560862	     81.86098962	      0.25551968	      0.81008078	      0.72764302	      3.71518946	     -2.20585892	     15.50912199	     11.93029749	      0.20822297	     18.00904859	     -9.02544271	      0.00000000	     -2.50244506	      1.73569002	    -13.75168182	      2.14511748	      0.03743936	     17.86312607	      4.75459338	      0.00000000	     -0.23500235	     -0.60715040	      2.77734796	     -0.43642286	     -0.80751003	      2.95093220	     -0.38608535	     -1.47622548	      2.95093220	     -0.26858418	     -1.47622548	      2.43017946	     -0.21822318	     -1.23810110	      2.25659521	     -0.13428034	     -0.94047597	      2.08301097	     -1.67859826	     -6.86820676	     15.44677613	      0.00000000	      0.00000000	      7.43060908	      4.47924994	     -6.19202230	     55.19234311	      0.60687275	    -13.26557441	    142.82081457	     88.83542719	     -5.50670416	      6.72804099	     56.61269732	     -7.75559537	     -2.74717547	    146.04076778	     87.46917257	     -7.00354989	      7.49876417
      2.27027027	     -3.78409327	      6.32290569	     81.51656769	      0.25557447	      0.80968390	      0.72779805	      3.97440854	     -2.01990223	     15.77191175	     12.01335636	      0.20967262	     18.22484440	     -8.92098387	      0.00000000	     -2.32497168	      1.62323604	    -14.14812868	      2.24689990	      0.03921580	     18.01253777	      4.53750953	      0.00000000	     -0.21217216	     -0.61414795	      2.79909229	     -0.39402492	     -0.81681678	      2.97403555	     -0.34857764	     -1.49323933	      2.97403555	     -0.24249156	     -1.49323933	      2.44920575	     -0.19702307	     -1.25237051	      2.27426248	     -0.12123517	     -0.95131518	      2.09931921	     -1.51552452	     -6.94736448	     15.56771156	      0.00000000	      0.00000000	      6.97279991	      4.68752504	     -7.61157989	     49.84134507	      1.52389681	    -15.34498852	    145.15062890	     88.68942878	     -6.09985405	      6.31587941	     51.52722557	     -6.44651856	     -3.55854599	    148.29171065	     86.88907697	     -6.88238439	      7.01228731
      2.29729730	     -3.82254269	      6.06056422	     81.25103579	      0.25564905	      0.80902193	      0.72794276	      4.38552902	     -1.97608587	     16.08942892	     12.10587980	      0.21128746	     18.49983933	     -8.86085806	      0.00000000	     -1.95979620	      1.63530828	    -14.48682157	      2.36796368	      0.04132876	     17.91506384	      4.34105179	      0.00000000	     -0.18933670	     -0.63624553	      2.84063146	     -0.35161719	     -0.84620655	      3.01817092	     -0.31106127	     -1.54696738	      3.01817092	     -0.21639292	     -1.54696738	      2.48555252	     -0.17581806	     -1.29743188	      2.30801306	     -0.10818699	     -0.98554432	      2.13047359	     -1.35241313	     -7.19733666	     15.79873997	      0.00000000	      0.00000000	      7.11809153	      4.89447688	     -8.91830067	     44.64338464	      1.91737199	    -16.19124591	    145.71045379	     88.62047979	     -6.24178826	      6.37539209	     46.45022184	     -5.68509769	     -3.09585905	    148.82937626	     86.38734984	     -6.14966668	      7.11211365
      2.32432432	     -4.03610172	      5.76957113	     80.70866517	      0.25653487	      0.80852064	      0.72817308	      4.93828231	     -2.06582680	     16.45506904	     12.36741769	      0.21585216	     18.78303287	     -8.63022285	      0.00000000	     -1.54467241	      1.79058420	    -15.05664362	      2.56555643	      0.04477741	     17.68231340	      4.01873317	      0.00000000	     -0.16258140	     -0.69726005	      3.04722126	     -0.30192991	     -0.92735587	      3.23767259	     -0.26710498	     -1.69531809	      3.23767259	     -0.18581428	     -1.69531809	      2.66631860	     -0.15097308	     -1.42185270	      2.47586728	     -0.09289901	     -1.08005582	      2.28541595	     -1.16130266	     -7.88754516	     16.94773049	      0.00000000	      0.00000000	      7.21649853	      5.04454972	    -11.81337230	     40.58137141	      1.80665470	    -16.89745484	    144.89849636	     88.70752367	     -5.87464763	      7.35897033	     42.72798837	     -5.04213837	     -1.76024375	    147.86421205	     85.62535324	     -3.97357368	      8.61125540
      2.35135135	     -4.22790229	      5.59060465	     80.64622697	      0.25682976	      0.80822051	      0.72890516	      5.29401115	     -2.19392250	     16.34096769	     12.59579013	      0.21983801	     18.78847099	     -8.53091562	      0.00000000	     -1.18576950	      1.92225664	    -15.35360146	      2.82354908	      0.04928023	     17.43391310	      3.94942241	      0.00000000	     -0.14179478	     -0.73828120	      3.12553628	     -0.26332708	     -0.98191400	      3.32088230	     -0.23295464	     -1.79505692	      3.32088230	     -0.16205725	     -1.79505692	      2.73484425	     -0.13167063	     -1.50550303	      2.53949823	     -0.08102154	     -1.14359759	      2.34415221	     -1.01282592	     -8.35158464	     17.38329513	      0.00000000	      0.00000000	      6.93804842	      5.63869816	    -12.70482102	     38.44362500	      2.13010556	    -16.96486804	    142.88929322	     88.88986235	     -5.88471192	      8.49128084	     40.25273902	     -4.62546142	     -0.56914923	    146.08919276	     84.76073114	     -3.54184229	      8.58926395
